<svg xmlns="http://www.w3.org/2000/svg" viewBox="0 0 109 109" width="109px" height="109px" version="1.1">
    <!-- Generator: Sketch 49.3 (51167) - http://www.bohemiancoding.com/sketch -->
    <title>register_with_remita_icon</title>
    <desc>Created with Sketch.</desc>
    <defs />
    <g id="Page-1" fill="none" fill-rule="evenodd" stroke="none" stroke-width="1">
        <g id="Personal-Initial-Screen---1" transform="translate(-667 -143)">
            <g id="register_with_remita_icon" transform="translate(667 143)">
                <circle id="Oval-2" opacity="0.1" fill="#f16524" cx="54.5" cy="54.5" r="54.5" />
                <circle id="Oval-2" opacity="0.11" fill="#f16524" cx="54.5" cy="54.5" r="36.9194" />
                <g id="browser" transform="translate(36 39)">
                    <path id="Shape" fill="#f26622" fill-rule="nonzero" d="M 36.9698 28.9896 L 36.9698 2.94716 C 36.9698 1.31951 35.7088 0 34.1533 0 L 2.81653 0 C 1.26102 -5.61417e-016 0 1.31951 0 2.94716 L 0 28.9975 C 0 30.6252 1.26102 31.9447 2.81653 31.9447 L 34.1533 31.9447 C 35.7088 31.9447 36.9698 30.6173 36.9698 28.9896 Z M 2.81653 1.43012 L 34.1533 1.43012 C 34.9537 1.43012 35.6031 2.10963 35.6031 2.94716 L 35.6031 6.46321 L 1.36673 6.46321 L 1.36673 2.94716 C 1.36673 2.10963 2.01612 1.43012 2.81653 1.43012 Z M 1.36673 28.9896 L 1.36673 7.89333 L 35.6031 7.89333 L 35.6031 28.9896 C 35.6031 29.8272 34.9537 30.5067 34.1533 30.5067 L 2.81653 30.5067 C 2.01612 30.5067 1.36673 29.8272 1.36673 28.9896 Z" />
                    <path id="Fill-1" stroke="#f26622" stroke-width="1.3" d="M 23.7821 23.1067 L 20.8743 21.6481 C 20.6008 21.5087 20.4303 21.2323 20.4303 20.9243 L 20.4303 19.8916 C 20.5002 19.8046 20.573 19.7083 20.6483 19.6009 C 21.0262 19.066 21.3271 18.4706 21.5468 17.828 C 21.9764 17.6315 22.2567 17.2043 22.2567 16.7239 L 22.2567 15.5006 C 22.2567 15.2069 22.146 14.9209 21.9516 14.6995 L 21.9516 13.0723 C 21.9676 12.905 22.0366 11.904 21.3157 11.0792 C 20.69 10.363 19.675 10 18.2994 10 C 16.9229 10 15.91 10.363 15.2842 11.0792 C 14.5642 11.904 14.6299 12.905 14.6471 13.0723 L 14.6471 14.6995 C 14.4531 14.9209 14.3433 15.2069 14.3433 15.5006 L 14.3433 16.7239 C 14.3433 17.0953 14.5116 17.4413 14.799 17.6729 C 15.0776 18.7816 15.6617 19.6174 15.8654 19.8844 L 15.8654 20.8956 C 15.8654 21.1914 15.7046 21.4622 15.4454 21.6046 L 12.7312 23.0924 C 11.8487 23.5757 11.3 24.5024 11.3 25.5122 L 11.3 27 L 25.3 27 L 25.3 25.5722 C 25.3 24.5222 24.7172 23.577 23.7821 23.1067" />
                    <path id="Shape" fill="#cb4d27" fill-rule="nonzero" d="M 6.17673 4.66568 C 6.35796 4.66568 6.53163 4.58667 6.66 4.45235 C 6.78837 4.31802 6.86388 4.1363 6.86388 3.94667 C 6.86388 3.75704 6.78837 3.57531 6.66 3.44099 C 6.53163 3.30667 6.35796 3.22765 6.17673 3.22765 C 5.99551 3.22765 5.82184 3.30667 5.69347 3.44099 C 5.5651 3.57531 5.48959 3.75704 5.48959 3.94667 C 5.48959 4.1363 5.5651 4.31802 5.69347 4.45235 C 5.82184 4.59457 5.99551 4.66568 6.17673 4.66568 Z" />
                    <path id="Shape" fill="#cb4d27" fill-rule="nonzero" d="M 8.59306 4.66568 C 8.77429 4.66568 8.94796 4.58667 9.07633 4.45235 C 9.20469 4.31802 9.2802 4.1363 9.2802 3.94667 C 9.2802 3.75704 9.20469 3.57531 9.07633 3.44099 C 8.94796 3.30667 8.77429 3.22765 8.59306 3.22765 C 8.41184 3.22765 8.23816 3.30667 8.1098 3.44099 C 7.98143 3.57531 7.90592 3.75704 7.90592 3.94667 C 7.90592 4.1363 7.98143 4.31802 8.1098 4.45235 C 8.23816 4.59457 8.41184 4.66568 8.59306 4.66568 Z" />
                    <path id="Shape" fill="#cb4d27" fill-rule="nonzero" d="M 3.76041 4.66568 C 3.94163 4.66568 4.11531 4.58667 4.24367 4.45235 C 4.37204 4.31802 4.44755 4.1363 4.44755 3.94667 C 4.44755 3.75704 4.37204 3.57531 4.24367 3.44099 C 4.11531 3.30667 3.94163 3.22765 3.76041 3.22765 C 3.57918 3.22765 3.40551 3.30667 3.27714 3.44099 C 3.14878 3.57531 3.07327 3.75704 3.07327 3.94667 C 3.07327 4.1363 3.14878 4.31802 3.27714 4.45235 C 3.40551 4.59457 3.57918 4.66568 3.76041 4.66568 Z" />
                </g>
            </g>
        </g>
    </g>
</svg>